<svg width="200" height="130" viewBox="0 0 200 130" fill="none" xmlns="http://www.w3.org/2000/svg">
<g clip-path="url(#clip0_328_3607)">
<path d="M0 10C0 4.47715 4.47715 0 10 0L190 0C195.523 0 200 4.47715 200 10V120C200 125.523 195.523 130 190 130H10C4.47716 130 0 125.523 0 120L0 10Z" fill="url(#paint0_linear_328_3607)"/>
<circle cx="12" cy="136" r="50" transform="rotate(-180 12 136)" fill="#9747FF" fill-opacity="0.6"/>
<circle cx="12" cy="136" r="40" transform="rotate(-180 12 136)" fill="#9747FF" fill-opacity="0.8"/>
<circle cx="9" cy="136" r="30" transform="rotate(-180 9 136)" fill="#9747FF"/>
<circle cx="182" cy="111" r="50" fill="#9747FF" fill-opacity="0.6"/>
<circle cx="182" cy="111" r="40" fill="#9747FF" fill-opacity="0.8"/>
<circle cx="185" cy="111" r="30" fill="#9747FF"/>
<path d="M0 10C0 4.47715 4.47715 0 10 0L190 0C195.523 0 200 4.47715 200 10V120C200 125.523 195.523 130 190 130H10C4.47716 130 0 125.523 0 120L0 10Z" fill="url(#paint1_linear_328_3607)"/>
</g>
<defs>
<linearGradient id="paint0_linear_328_3607" x1="18.5" y1="11.5" x2="190.5" y2="114.5" gradientUnits="userSpaceOnUse">
<stop stop-color="#1A2C5B" stop-opacity="0.8"/>
<stop offset="1" stop-color="#1A2C5B" stop-opacity="0.6"/>
</linearGradient>
<linearGradient id="paint1_linear_328_3607" x1="18.5" y1="11.5" x2="190.5" y2="114.5" gradientUnits="userSpaceOnUse">
<stop stop-color="#1A2C5B" stop-opacity="0.8"/>
<stop offset="1" stop-color="#1A2C5B" stop-opacity="0.6"/>
</linearGradient>
<clipPath id="clip0_328_3607">
<rect width="200" height="130" rx="10" fill="white"/>
</clipPath>
</defs>
</svg>
